<mxfile host="app.diagrams.net" modified="2024-04-27T14:33:33.813Z" agent="Mozilla/5.0 (Windows NT 10.0; Win64; x64) AppleWebKit/537.36 (KHTML, like Gecko) Chrome/124.0.0.0 Safari/537.36" version="24.0.4" etag="JDx5D8TItfgOAhfPTmsQ" type="github">
  <diagram name="Page-1" id="eUdQC9I0pn8m3l-2B8z8">
    <mxGraphModel>
      <root>
        <mxCell id="0" />
        <mxCell id="1" parent="0" />
      </root>
    </mxGraphModel>
  </diagram>
</mxfile>
